<?xml version="1.0" encoding="UTF-8" standalone="no"?>
<!-- Created with Inkscape (http://www.inkscape.org/) -->

<svg
   xmlns:dc="http://purl.org/dc/elements/1.1/"
   xmlns:cc="http://creativecommons.org/ns#"
   xmlns:rdf="http://www.w3.org/1999/02/22-rdf-syntax-ns#"
   xmlns:svg="http://www.w3.org/2000/svg"
   xmlns="http://www.w3.org/2000/svg"
   xmlns:sodipodi="http://sodipodi.sourceforge.net/DTD/sodipodi-0.dtd"
   xmlns:inkscape="http://www.inkscape.org/namespaces/inkscape"
   width="960"
   height="256"
   viewBox="0 0 960 256"
   id="svg3730"
   version="1.1"
   inkscape:version="0.91 r13725"
   sodipodi:docname="logo.svg">
  <defs
     id="defs3732">
    <clipPath
       clipPathUnits="userSpaceOnUse"
       id="clipPath3467">
      <path
         d="m 426.614,144.209 314.645,0 0,295.161 -314.645,0 0,-295.161 z"
         id="path3469"
         inkscape:connector-curvature="0" />
    </clipPath>
  </defs>
  <sodipodi:namedview
     id="base"
     pagecolor="#ffffff"
     bordercolor="#666666"
     borderopacity="1.0"
     inkscape:pageopacity="0.0"
     inkscape:pageshadow="2"
     inkscape:zoom="0.49497475"
     inkscape:cx="459.53779"
     inkscape:cy="-6.8795819"
     inkscape:document-units="px"
     inkscape:current-layer="layer1"
     showgrid="false"
     units="px"
     fit-margin-top="0"
     fit-margin-left="0"
     fit-margin-right="0"
     fit-margin-bottom="0"
     inkscape:window-width="1920"
     inkscape:window-height="1127"
     inkscape:window-x="1920"
     inkscape:window-y="0"
     inkscape:window-maximized="1"
     inkscape:showpageshadow="false"
     inkscape:snap-text-baseline="true" />
  <metadata
     id="metadata3735">
    <rdf:RDF>
      <cc:Work
         rdf:about="">
        <dc:format>image/svg+xml</dc:format>
        <dc:type
           rdf:resource="http://purl.org/dc/dcmitype/StillImage" />
        <dc:title></dc:title>
      </cc:Work>
    </rdf:RDF>
  </metadata>
  <g
     inkscape:label="Layer 1"
     inkscape:groupmode="layer"
     id="layer1"
     transform="translate(8.9975197e-7,-795.89988)">
    <g
       transform="matrix(0.86732326,0,0,-0.86732326,-370.01294,1176.9757)"
       id="g3465"
       clip-path="url(#clipPath3467)">
      <g
         id="g3471"
         transform="translate(519.5906,265.2071)">
        <path
           d="m 0,0 c 0,-4.556 -2.784,-7.337 -7.341,-7.337 l -26.956,0 0,67.837 26.956,0 C -2.784,60.5 0,57.715 0,53.16 L 0,0 Z m -5.189,68.729 -35.709,0 c -1.248,0 -2.26,-1.014 -2.26,-2.261 l 0,-79.771 c 0,-1.25 1.012,-2.261 2.26,-2.261 l 35.709,0 c 8.1,0 14.048,5.951 14.048,14.046 l 0,56.196 c 0,8.224 -5.948,14.051 -14.048,14.051"
           style="fill:#000000;fill-opacity:1;fill-rule:nonzero;stroke:none"
           id="path3473"
           inkscape:connector-curvature="0" />
      </g>
      <g
         id="g3475"
         transform="translate(626.6973,333.9355)">
        <path
           d="m 0,0 -12.294,0 -14.735,0 c -1.249,0 -2.261,-1.013 -2.261,-2.261 l 0,-4.704 0,-4.066 c 0,-1.249 1.012,-2.261 2.261,-2.261 l 14.735,0 0,-1.266 0,-67.474 c 0,-1.248 1.012,-2.26 2.259,-2.26 l 10.035,0 c 1.248,0 2.26,1.012 2.26,2.26 l 0,68.74 0,11.031 C 2.26,-1.013 1.248,0 0,0"
           style="fill:#000000;fill-opacity:1;fill-rule:nonzero;stroke:none"
           id="path3477"
           inkscape:connector-curvature="0" />
      </g>
      <g
         id="g3479"
         transform="translate(576.2224,266.223)">
        <path
           d="m 0,0 c 0,-1.898 -1.518,-3.294 -3.417,-3.294 l -13.921,0 c -1.899,0 -3.419,1.396 -3.419,3.294 l 0,11.264 c 0,1.899 1.014,3.418 3.419,4.176 3.036,1.016 10.757,2.534 13.921,2.534 C -1.265,17.974 0,16.579 0,14.682 L 0,0 Z m 1.139,31.764 c -6.202,0 -15.061,-1.518 -21.896,-3.669 l 0,23.037 c 0,1.899 1.52,3.29 3.419,3.29 l 13.161,0 11.192,0 c 1.248,0 2.261,1.011 2.261,2.26 l 0,8.77 c 0,1.248 -1.013,2.26 -2.261,2.26 l -6.383,0 -21.389,0 -1.138,0 c -7.468,0 -13.415,-5.951 -13.415,-13.29 l 0,-57.716 c 0,-7.335 5.821,-13.286 13.162,-13.286 l 23.287,0 c 7.468,0 13.416,5.951 13.416,13.286 l 0,21.771 c 0,7.341 -4.81,13.287 -13.416,13.287"
           style="fill:#000000;fill-opacity:1;fill-rule:nonzero;stroke:none"
           id="path3481"
           inkscape:connector-curvature="0" />
      </g>
      <g
         id="g3483"
         transform="translate(681.6733,207.7688)">
        <path
           d="m 0,0 -5.209,3.007 0.002,-0.003 -0.001,0 0,-10e-4 c -0.66,0.346 -1.464,0.393 -2.157,-0.007 -10.422,-6.017 -92.475,-53.39 -92.503,-53.407 -0.692,-0.4 -1.053,-1.119 -1.085,-1.864 l 0,0.002 0,-0.002 -0.002,0.004 0,-6.031 c -0.003,-0.387 0.095,-0.78 0.302,-1.14 0.211,-0.364 0.507,-0.647 0.85,-0.839 l 5.208,-3.007 -0.001,0.003 0,10e-4 c 0.661,-0.345 1.464,-0.392 2.157,0.006 L 0.063,-9.87 c 0.693,0.399 1.054,1.119 1.085,1.864 l 0.001,-10e-4 0,10e-4 0.002,-0.003 10e-4,6.031 C 1.154,-1.592 1.057,-1.199 0.85,-0.84 0.639,-0.476 0.341,-0.193 0,0"
           style="fill:#2fb888;fill-opacity:1;fill-rule:nonzero;stroke:none"
           id="path3485"
           inkscape:connector-curvature="0" />
      </g>
      <g
         id="g3487"
         transform="translate(549.8517,436.09)">
        <path
           d="m 0,0 -5.209,3.007 0.002,-0.003 -0.001,10e-4 0,-10e-4 C -5.867,3.349 -6.672,3.397 -7.365,2.997 -17.787,-3.021 -99.84,-50.394 -99.867,-50.41 c -0.693,-0.399 -1.054,-1.12 -1.086,-1.863 l -0.002,0.002 0,-6.03 c -0.003,-0.388 0.095,-0.781 0.302,-1.141 0.211,-0.363 0.508,-0.647 0.85,-0.839 l 5.208,-3.006 -0.001,0.003 0,-10e-4 0,10e-4 c 0.661,-0.344 1.464,-0.392 2.157,0.007 L 0.064,-9.87 c 0.692,0.4 1.053,1.12 1.084,1.864 l 0.002,0 0.001,-0.002 10e-4,6.03 C 1.154,-1.591 1.057,-1.197 0.85,-0.839 0.639,-0.476 0.341,-0.192 0,0"
           style="fill:#2fb888;fill-opacity:1;fill-rule:nonzero;stroke:none"
           id="path3489"
           inkscape:connector-curvature="0" />
      </g>
      <g
         id="g3491"
         transform="translate(551.0024,155.5012)">
        <path
           d="m 0,0 -0.002,-0.003 0,0.001 0,-0.001 c -0.031,0.744 -0.393,1.464 -1.085,1.864 -10.422,6.017 -92.476,53.39 -92.503,53.406 -0.692,0.4 -1.496,0.353 -2.156,0.008 l 0,0.001 0,-0.001 10e-4,0.004 -5.223,-3.016 c -0.336,-0.191 -0.628,-0.472 -0.835,-0.83 -0.211,-0.364 -0.307,-0.764 -0.302,-1.156 l 0,-6.015 0.002,0.004 0,-10e-4 c 0.031,-0.743 0.392,-1.465 1.085,-1.864 l 92.503,-53.406 c 0.692,-0.4 1.496,-0.353 2.156,-0.007 l 0,-10e-4 -0.001,-0.004 5.223,3.015 c 0.336,0.191 0.628,0.474 0.835,0.832 0.21,0.363 0.307,0.764 0.303,1.156 L 0,0 Z"
           style="fill:#2fb888;fill-opacity:1;fill-rule:nonzero;stroke:none"
           id="path3493"
           inkscape:connector-curvature="0" />
      </g>
      <g
         id="g3495"
         transform="translate(440.3998,347.0732)">
        <path
           d="M 0,0 0.001,0 0,0 0.003,0 -5.219,3.016 c -0.334,0.196 -0.723,0.308 -1.138,0.308 -0.42,0 -0.814,-0.116 -1.152,-0.316 L -12.717,0 l 0.003,0 c -0.628,-0.399 -1.071,-1.071 -1.071,-1.871 l 0,-106.814 c 0,-0.799 0.442,-1.472 1.071,-1.871 l -10e-4,0 10e-4,0 -0.003,0 5.222,-3.016 c 0.334,-0.196 0.724,-0.308 1.138,-0.308 0.42,0 0.814,0.116 1.152,0.316 l 5.208,3.008 -0.003,0 c 0.628,0.399 1.071,1.072 1.071,1.871 l 0,106.783 C 1.071,-1.071 0.629,-0.399 0,0"
           style="fill:#2fb888;fill-opacity:1;fill-rule:nonzero;stroke:none"
           id="path3497"
           inkscape:connector-curvature="0" />
      </g>
      <g
         id="g3499"
         transform="translate(740.9441,292.9398)">
        <path
           d="m 0,0 -3.007,5.209 0,-0.003 -10e-4,0 C -3.407,5.835 -4.081,6.277 -4.88,6.277 l -30.951,0 0,30.949 c 0,0.801 -0.441,1.475 -1.07,1.873 l 0,0.001 0.003,0 -5.223,3.016 c -0.333,0.196 -0.724,0.307 -1.137,0.307 -0.421,0 -0.816,-0.114 -1.152,-0.315 l -5.209,-3.008 0.004,0 -10e-4,-0.001 10e-4,0 c -0.629,-0.398 -1.072,-1.072 -1.072,-1.872 l 0,-30.95 -30.95,0 c -0.8,0 -1.472,-0.442 -1.872,-1.071 l 0,0.003 -3.016,-5.223 c -0.195,-0.333 -0.308,-0.723 -0.308,-1.137 0,-0.42 0.116,-0.815 0.315,-1.151 l 3.009,-5.21 0,0.003 0,0.001 c 0.4,-0.627 1.072,-1.071 1.872,-1.071 l 30.95,0 0,-29.522 0,-1.428 c 0,-0.799 0.442,-1.473 1.072,-1.873 l -10e-4,0 -0.003,0 5.223,-3.015 c 0.333,-0.196 0.723,-0.308 1.138,-0.308 0.419,0 0.814,0.115 1.15,0.316 l 5.21,3.007 -0.003,0 c 0.628,0.4 1.07,1.074 1.07,1.873 l 0,1.428 0,29.522 30.95,0 c 0.8,0 1.474,0.443 1.873,1.071 l 0,-0.001 10e-4,0.001 0,-0.004 3.015,5.223 c 0.196,0.333 0.308,0.724 0.308,1.138 C 0.316,-0.731 0.201,-0.336 0,0"
           style="fill:#2fb888;fill-opacity:1;fill-rule:nonzero;stroke:none"
           id="path3501"
           inkscape:connector-curvature="0" />
      </g>
    </g>
    <g
       style="font-style:normal;font-weight:normal;font-size:40px;line-height:125%;font-family:sans-serif;letter-spacing:-31.23999977px;word-spacing:0px;fill:#000000;fill-opacity:1;stroke:none;stroke-width:1px;stroke-linecap:butt;stroke-linejoin:miter;stroke-opacity:1"
       id="text3494"
       transform="translate(6,0)">
      <path
         d="m 340.7985,956.11127 -46.83,0 0,-68.145 45.78,0 0,7.14 -35.595,0 0,22.26 32.13,0 0,7.14 -32.13,0 0,24.465 36.645,0 0,7.14 z"
         style="font-style:normal;font-variant:normal;font-weight:normal;font-stretch:normal;font-size:105px;line-height:125%;font-family:Play;-inkscape-font-specification:'Play, Normal';text-align:start;writing-mode:lr-tb;text-anchor:start"
         id="path3505"
         inkscape:connector-curvature="0" />
      <path
         d="m 390.3017,956.11127 -10.395,0 -13.755,-20.055 -13.65,20.055 -10.395,0 18.9,-26.145 -17.85,-24.675 10.395,0 12.6,18.585 12.705,-18.585 10.395,0 -17.85,24.675 18.9,26.145 z"
         style="font-style:normal;font-variant:normal;font-weight:normal;font-stretch:normal;font-size:105px;line-height:125%;font-family:Play;-inkscape-font-specification:'Play, Normal';text-align:start;writing-mode:lr-tb;text-anchor:start"
         id="path3507"
         inkscape:connector-curvature="0" />
      <path
         d="m 440.79584,939.52127 q 0,4.62 -1.365,7.98 -1.365,3.36 -3.465,5.25 -1.995,1.785 -5.355,2.835 -3.36,1.05 -6.3,1.26 -2.94,0.315 -7.14,0.315 -4.2,0 -8.19,-1.05 -3.99,-1.05 -5.04,-3.255 l 0,25.095 -9.45,0 0,-72.66 9.345,0 0,5.46 0.105,0 q 1.155,-6.51 17.325,-6.51 10.185,0 14.805,4.305 4.725,4.2 4.725,10.08 l 0,20.895 z m -9.66,1.155 0,-18.69 q 0,-7.035 -3.045,-8.925 -3.045,-1.995 -10.815,-1.995 -7.77,0 -10.605,1.89 -2.73,1.89 -2.73,9.03 l 0,18.69 q 0,6.405 2.835,8.295 2.94,1.785 10.605,1.785 7.77,0 10.71,-1.785 3.045,-1.89 3.045,-8.295 z"
         style="font-style:normal;font-variant:normal;font-weight:normal;font-stretch:normal;font-size:105px;line-height:125%;font-family:Play;-inkscape-font-specification:'Play, Normal';text-align:start;writing-mode:lr-tb;text-anchor:start"
         id="path3509"
         inkscape:connector-curvature="0" />
      <path
         d="m 491.98397,932.80127 -34.125,0 0,7.665 q 0,5.355 3.78,7.665 3.78,2.205 11.235,2.205 7.245,0 17.115,-2.52 l 0,7.245 q -9.45,2.1 -18.375,2.1 -23.31,0 -23.31,-15.54 l 0,-20.055 q 0,-9.345 5.355,-13.335 5.355,-3.99 17.115,-3.99 11.025,0 16.065,3.885 5.145,3.78 5.145,13.44 l 0,11.235 z m -9.45,-6.195 0,-7.98 q 0,-4.62 -2.835,-6.3 -2.835,-1.785 -9.45,-1.785 -6.3,0 -9.345,1.68 -3.045,1.68 -3.045,6.405 l 0,7.98 24.675,0 z"
         style="font-style:normal;font-variant:normal;font-weight:normal;font-stretch:normal;font-size:105px;line-height:125%;font-family:Play;-inkscape-font-specification:'Play, Normal';text-align:start;writing-mode:lr-tb;text-anchor:start"
         id="path3511"
         inkscape:connector-curvature="0" />
      <path
         d="m 528.79037,912.32627 -5.25,0 q -6.51,0 -9.66,1.68 -3.045,1.68 -3.045,6.3 l 0,35.805 -9.45,0 0,-50.82 8.925,0 0,8.295 q 0,-3.675 4.515,-6.51 4.62,-2.835 9.345,-2.835 l 4.62,0 0,8.085 z"
         style="font-style:normal;font-variant:normal;font-weight:normal;font-stretch:normal;font-size:105px;line-height:125%;font-family:Play;-inkscape-font-specification:'Play, Normal';text-align:start;writing-mode:lr-tb;text-anchor:start"
         id="path3513"
         inkscape:connector-curvature="0" />
      <path
         d="m 565.21944,956.32127 q -5.04,0.84 -10.605,0.84 -9.555,0 -13.335,-3.255 -3.78,-3.36 -3.78,-12.6 l 0,-29.82 -11.34,0 0,-6.195 11.34,0 0,-15.75 9.555,0 0,15.75 18.165,0 0,6.195 -18.165,0 0,30.345 q 0,5.46 2.1,7.35 2.1,1.785 8.505,1.785 1.68,0 7.56,-0.84 l 0,6.195 z"
         style="font-style:normal;font-variant:normal;font-weight:normal;font-stretch:normal;font-size:105px;line-height:125%;font-family:Play;-inkscape-font-specification:'Play, Normal';text-align:start;writing-mode:lr-tb;text-anchor:start"
         id="path3515"
         inkscape:connector-curvature="0" />
      <path
         d="m 634.08658,954.83627 q -11.6875,2.3375 -22.3125,2.3375 -4.25,0 -8.075,-0.425 -3.71875,-0.31875 -8.39375,-1.4875 -4.56875,-1.275 -7.8625,-3.29375 -3.1875,-2.125 -5.41875,-5.84375 -2.23125,-3.825 -2.23125,-8.925 l 0,-30.28125 q 0,-20.825 31.98125,-20.825 7.8625,0 21.8875,2.3375 l 0,12.43125 q -12.64375,-2.975 -21.675,-2.975 -3.6125,0 -5.95,0.2125 -2.23125,0.2125 -4.78125,1.0625 -2.44375,0.85 -3.71875,2.7625 -1.16875,1.80625 -1.16875,4.78125 l 0,29.325 q 0,9.35 17.10625,9.35 7.54375,0 20.6125,-3.08125 l 0,12.5375 z"
         style="font-style:normal;font-variant:normal;font-weight:bold;font-stretch:normal;font-size:106.25px;line-height:125%;font-family:Play;-inkscape-font-specification:'Play, Bold';text-align:start;writing-mode:lr-tb;text-anchor:start"
         id="path3517"
         inkscape:connector-curvature="0" />
      <path
         d="m 689.93131,923.28002 0,15.19375 q 0,4.99375 -1.59375,8.60625 -1.59375,3.50625 -3.93125,5.525 -2.3375,1.9125 -6.1625,2.975 -3.71875,1.0625 -6.90625,1.275 -3.08125,0.31875 -7.54375,0.31875 -4.4625,0 -7.65,-0.31875 -3.08125,-0.2125 -6.90625,-1.275 -3.71875,-1.0625 -6.05625,-2.975 -2.3375,-2.01875 -3.93125,-5.525 -1.59375,-3.6125 -1.59375,-8.60625 l 0,-15.19375 q 0,-5.3125 1.59375,-9.03125 1.7,-3.825 4.0375,-5.84375 2.44375,-2.01875 6.26875,-3.08125 3.825,-1.16875 6.8,-1.38125 3.08125,-0.31875 7.4375,-0.31875 4.35625,0 7.33125,0.31875 3.08125,0.2125 6.90625,1.38125 3.825,1.0625 6.1625,3.08125 2.44375,2.01875 4.0375,5.84375 1.7,3.71875 1.7,9.03125 z m -15.5125,17 0,-19.44375 q 0,-4.14375 -2.125,-5.84375 -2.125,-1.80625 -8.5,-1.80625 -6.375,0 -8.5,1.80625 -2.125,1.7 -2.125,5.84375 l 0,19.44375 q 0,4.0375 2.01875,5.63125 2.125,1.59375 8.60625,1.59375 6.48125,0 8.5,-1.59375 2.125,-1.59375 2.125,-5.63125 z"
         style="font-style:normal;font-variant:normal;font-weight:bold;font-stretch:normal;font-size:106.25px;line-height:125%;font-family:Play;-inkscape-font-specification:'Play, Bold';text-align:start;writing-mode:lr-tb;text-anchor:start"
         id="path3519"
         inkscape:connector-curvature="0" />
      <path
         d="m 746.64098,956.11127 -15.5125,0 0,-35.7 q 0,-4.25 -1.4875,-5.7375 -1.38125,-1.4875 -6.8,-1.4875 -6.69375,0 -8.5,1.4875 -1.80625,1.38125 -1.80625,5.7375 l 0,35.7 -15.5125,0 0,-51.425 15.3,0 0,6.26875 q 1.80625,-7.33125 16.46875,-7.33125 10.2,0 14.025,3.71875 3.825,3.6125 3.825,11.05 l 0,37.71875 z"
         style="font-style:normal;font-variant:normal;font-weight:bold;font-stretch:normal;font-size:106.25px;line-height:125%;font-family:Play;-inkscape-font-specification:'Play, Bold';text-align:start;writing-mode:lr-tb;text-anchor:start"
         id="path3521"
         inkscape:connector-curvature="0" />
      <path
         d="m 804.93444,956.11127 -15.5125,0 0,-35.7 q 0,-4.25 -1.4875,-5.7375 -1.38125,-1.4875 -6.8,-1.4875 -6.69375,0 -8.5,1.4875 -1.80625,1.38125 -1.80625,5.7375 l 0,35.7 -15.5125,0 0,-51.425 15.3,0 0,6.26875 q 1.80625,-7.33125 16.46875,-7.33125 10.2,0 14.025,3.71875 3.825,3.6125 3.825,11.05 l 0,37.71875 z"
         style="font-style:normal;font-variant:normal;font-weight:bold;font-stretch:normal;font-size:106.25px;line-height:125%;font-family:Play;-inkscape-font-specification:'Play, Bold';text-align:start;writing-mode:lr-tb;text-anchor:start"
         id="path3523"
         inkscape:connector-curvature="0" />
      <path
         d="m 861.10289,934.54252 -33.3625,0 0,4.675 q 0,4.35625 3.08125,6.375 3.08125,1.9125 11.58125,1.9125 7.65,0 17.2125,-2.23125 l 0,9.88125 q -9.775,2.01875 -20.1875,2.01875 -27.30625,0 -27.30625,-16.68125 l 0,-18.4875 q 0,-9.88125 6.375,-14.13125 6.375,-4.25 19.01875,-4.25 11.9,0 17.74375,4.0375 5.84375,4.0375 5.84375,14.34375 l 0,12.5375 z m -14.76875,-8.81875 0,-7.4375 q 0,-2.44375 -2.01875,-3.71875 -1.9125,-1.38125 -7.0125,-1.38125 -5.63125,0 -7.65,1.38125 -1.9125,1.275 -1.9125,3.71875 l 0,7.4375 18.59375,0 z"
         style="font-style:normal;font-variant:normal;font-weight:bold;font-stretch:normal;font-size:106.25px;line-height:125%;font-family:Play;-inkscape-font-specification:'Play, Bold';text-align:start;writing-mode:lr-tb;text-anchor:start"
         id="path3525"
         inkscape:connector-curvature="0" />
      <path
         d="m 910.45973,955.36752 q -9.35,1.80625 -17.425,1.80625 -3.93125,0 -6.26875,-0.10625 -2.3375,-0.10625 -5.95,-0.6375 -3.50625,-0.425 -5.7375,-1.59375 -2.125,-1.16875 -4.35625,-2.975 -2.125,-1.9125 -3.1875,-4.99375 -1.0625,-3.1875 -1.0625,-7.4375 l 0,-17.10625 q 0,-3.825 0.85,-6.69375 0.95625,-2.975 2.23125,-4.8875 1.38125,-2.01875 3.71875,-3.4 2.44375,-1.38125 4.4625,-2.01875 2.01875,-0.74375 5.20625,-1.16875 3.29375,-0.425 5.41875,-0.425 2.23125,-0.10625 5.7375,-0.10625 5.84375,0 15.61875,1.9125 l 0,10.2 q -11.05,-2.55 -16.7875,-2.55 -10.73125,0 -10.73125,7.225 l 0,18.9125 q 0,8.18125 11.79375,8.18125 5.525,0 16.46875,-2.3375 l 0,10.2 z"
         style="font-style:normal;font-variant:normal;font-weight:bold;font-stretch:normal;font-size:106.25px;line-height:125%;font-family:Play;-inkscape-font-specification:'Play, Bold';text-align:start;writing-mode:lr-tb;text-anchor:start"
         id="path3527"
         inkscape:connector-curvature="0" />
      <path
         d="m 948.5358,956.64252 q -4.4625,0.53125 -8.60625,0.53125 -3.6125,0 -6.375,-0.31875 -2.65625,-0.2125 -5.63125,-1.16875 -2.86875,-1.0625 -4.78125,-2.65625 -1.80625,-1.7 -3.08125,-4.675 -1.16875,-3.08125 -1.16875,-7.225 l 0,-26.88125 -10.4125,0 0,-9.5625 10.4125,0 0,-14.875 15.5125,0 0,14.875 14.13125,0 0,9.5625 -14.13125,0 0,24.225 q 0,5.3125 1.59375,7.225 1.59375,1.80625 7.0125,1.80625 1.80625,0 5.525,-0.53125 l 0,9.66875 z"
         style="font-style:normal;font-variant:normal;font-weight:bold;font-stretch:normal;font-size:106.25px;line-height:125%;font-family:Play;-inkscape-font-specification:'Play, Bold';text-align:start;writing-mode:lr-tb;text-anchor:start"
         id="path3529"
         inkscape:connector-curvature="0" />
    </g>
  </g>
</svg>
